<svg width="80" height="80" viewBox="0 0 80 80" fill="none" xmlns="http://www.w3.org/2000/svg">
<path d="M40 80C62.0914 80 80 62.0914 80 40C80 17.9086 62.0914 0 40 0C17.9086 0 0 17.9086 0 40C0 62.0914 17.9086 80 40 80Z" fill="white"/>
<path d="M38.261 40H80C80 36.3896 79.5188 32.8921 78.6221 29.5651H38.261V40Z" fill="#E74A3F"/>
<path d="M38.261 19.1304H74.1291C71.6805 15.1348 68.5497 11.6031 64.8994 8.69557H38.261V19.1304Z" fill="#E74A3F"/>
<path d="M40.0002 79.9999C49.4141 79.9999 58.0667 76.7462 64.8995 71.3043H15.1008C21.9336 76.7462 30.5863 79.9999 40.0002 79.9999Z" fill="#E74A3F"/>
<path d="M5.87102 60.8695H74.1291C76.0949 57.6618 77.6194 54.1556 78.6221 50.4346H1.37805C2.38071 54.1556 3.90524 57.6618 5.87102 60.8695Z" fill="#E74A3F"/>
<path d="M18.5287 6.24656H22.1739L18.7833 8.70984L20.0784 12.6956L16.688 10.2323L13.2975 12.6956L14.4162 9.25234C11.4309 11.7391 8.81437 14.6525 6.65812 17.8987H7.82609L5.66781 19.4667C5.33156 20.0277 5.00906 20.5975 4.7 21.1758L5.73062 24.3478L3.80781 22.9508C3.32984 23.9634 2.89265 24.9989 2.49969 26.0559L3.63515 29.5509H7.82609L4.43547 32.0142L5.73062 36L2.34016 33.5367L0.309219 35.0123C0.105937 36.6464 0 38.3108 0 40H40C40 17.9087 40 15.3044 40 0C32.0981 0 24.732 2.29219 18.5287 6.24656ZM20.0784 36L16.688 33.5367L13.2975 36L14.5926 32.0142L11.202 29.5509H15.393L16.688 25.5652L17.983 29.5509H22.1739L18.7833 32.0142L20.0784 36ZM18.7833 20.362L20.0784 24.3478L16.688 21.8845L13.2975 24.3478L14.5926 20.362L11.202 17.8987H15.393L16.688 13.913L17.983 17.8987H22.1739L18.7833 20.362ZM34.4262 36L31.0358 33.5367L27.6453 36L28.9405 32.0142L25.5498 29.5509H29.7408L31.0358 25.5652L32.3308 29.5509H36.5217L33.1311 32.0142L34.4262 36ZM33.1311 20.362L34.4262 24.3478L31.0358 21.8845L27.6453 24.3478L28.9405 20.362L25.5498 17.8987H29.7408L31.0358 13.913L32.3308 17.8987H36.5217L33.1311 20.362ZM33.1311 8.70984L34.4262 12.6956L31.0358 10.2323L27.6453 12.6956L28.9405 8.70984L25.5498 6.24656H29.7408L31.0358 2.26078L32.3308 6.24656H36.5217L33.1311 8.70984Z" fill="#154CCF"/>
<path fill-rule="evenodd" clip-rule="evenodd" d="M40 78.0667C61.0236 78.0667 78.0666 61.0236 78.0666 40C78.0666 18.9764 61.0236 1.93333 40 1.93333C18.9764 1.93333 1.93333 18.9764 1.93333 40C1.93333 61.0236 18.9764 78.0667 40 78.0667ZM80 40C80 62.0914 62.0914 80 40 80C17.9086 80 0 62.0914 0 40C0 17.9086 17.9086 0 40 0C62.0914 0 80 17.9086 80 40Z" fill="black" fill-opacity="0.1"/>
</svg>
